REM DIRINDEX 1\2,1\3
REM DIRNAME folder01,folder02,folder03
TITLE ""
FILE "1301-1320.mp3" MP3
  TRACK 01 AUDIO
    TITLE "0:"
    INDEX 01 00:00:00
  TRACK 02 AUDIO
    TITLE "2:cjc039_1601"
    INDEX 01 00:00:25
  TRACK 03 AUDIO
    TITLE "0:"
    INDEX 01 00:01:48
  TRACK 04 AUDIO
    TITLE "3:cjc039_1602"
    INDEX 01 00:02:22
  TRACK 05 AUDIO
    TITLE "0:"
    INDEX 01 00:04:70
  TRACK 06 AUDIO
    TITLE "2:cjc039_1603"
    INDEX 01 00:06:45
  TRACK 07 AUDIO
    TITLE "0:"
    INDEX 01 00:07:47
  TRACK 08 AUDIO
    TITLE "3:cjc039_1604"
    INDEX 01 00:08:23
  TRACK 09 AUDIO
    TITLE "0:"
    INDEX 01 00:11:50
  TRACK 10 AUDIO
    TITLE "2:cjc039_1605"
    INDEX 01 00:13:28
  TRACK 11 AUDIO
    TITLE "0:"
    INDEX 01 00:14:47
  TRACK 12 AUDIO
    TITLE "3:cjc039_1606"
    INDEX 01 00:15:25
  TRACK 13 AUDIO
    TITLE "0:"
    INDEX 01 00:19:65
  TRACK 14 AUDIO
    TITLE "2:cjc039_1607"
    INDEX 01 00:21:37
  TRACK 15 AUDIO
    TITLE "0:"
    INDEX 01 00:22:56
  TRACK 16 AUDIO
    TITLE "3:cjc039_1608"
    INDEX 01 00:23:24
  TRACK 17 AUDIO
    TITLE "0:"
    INDEX 01 00:26:07
  TRACK 18 AUDIO
    TITLE "2:cjc039_1609"
    INDEX 01 00:27:59
  TRACK 19 AUDIO
    TITLE "0:"
    INDEX 01 00:28:72
  TRACK 20 AUDIO
    TITLE "3:cjc039_1610"
    INDEX 01 00:29:52
  TRACK 21 AUDIO
    TITLE "0:"
    INDEX 01 00:33:26
  TRACK 22 AUDIO
    TITLE "2:cjc039_1611"
    INDEX 01 00:35:02
  TRACK 23 AUDIO
    TITLE "0:"
    INDEX 01 00:36:25
  TRACK 24 AUDIO
    TITLE "3:cjc039_1612"
    INDEX 01 00:37:05
  TRACK 25 AUDIO
    TITLE "0:"
    INDEX 01 00:40:66
  TRACK 26 AUDIO
    TITLE "2:cjc039_1613"
    INDEX 01 00:42:41
  TRACK 27 AUDIO
    TITLE "0:"
    INDEX 01 00:43:29
  TRACK 28 AUDIO
    TITLE "3:cjc039_1614"
    INDEX 01 00:44:05
  TRACK 29 AUDIO
    TITLE "0:"
    INDEX 01 00:47:05
  TRACK 30 AUDIO
    TITLE "2:cjc039_1615"
    INDEX 01 00:48:55
  TRACK 31 AUDIO
    TITLE "0:"
    INDEX 01 00:49:74
  TRACK 32 AUDIO
    TITLE "3:cjc039_1616"
    INDEX 01 00:50:52
  TRACK 33 AUDIO
    TITLE "0:"
    INDEX 01 00:54:38
  TRACK 34 AUDIO
    TITLE "2:cjc039_1617"
    INDEX 01 00:56:12
  TRACK 35 AUDIO
    TITLE "0:"
    INDEX 01 00:57:15
  TRACK 36 AUDIO
    TITLE "3:cjc039_1618"
    INDEX 01 00:57:66
  TRACK 37 AUDIO
    TITLE "0:"
    INDEX 01 01:00:49
  TRACK 38 AUDIO
    TITLE "2:cjc039_1619"
    INDEX 01 01:02:30
  TRACK 39 AUDIO
    TITLE "0:"
    INDEX 01 01:03:47
  TRACK 40 AUDIO
    TITLE "3:cjc039_1620"
    INDEX 01 01:04:25
  TRACK 41 AUDIO
    TITLE "0:"
    INDEX 01 01:08:35
  TRACK 42 AUDIO
    TITLE "2:cjc039_1621"
    INDEX 01 01:10:16
  TRACK 43 AUDIO
    TITLE "0:"
    INDEX 01 01:11:23
  TRACK 44 AUDIO
    TITLE "3:cjc039_1622"
    INDEX 01 01:11:74
  TRACK 45 AUDIO
    TITLE "0:"
    INDEX 01 01:15:50
  TRACK 46 AUDIO
    TITLE "2:cjc039_1623"
    INDEX 01 01:17:28
  TRACK 47 AUDIO
    TITLE "0:"
    INDEX 01 01:18:41
  TRACK 48 AUDIO
    TITLE "3:cjc039_1624"
    INDEX 01 01:19:17
  TRACK 49 AUDIO
    TITLE "0:"
    INDEX 01 01:22:21
  TRACK 50 AUDIO
    TITLE "2:cjc039_1625"
    INDEX 01 01:23:69
  TRACK 51 AUDIO
    TITLE "0:"
    INDEX 01 01:25:06
  TRACK 52 AUDIO
    TITLE "3:cjc039_1626"
    INDEX 01 01:25:60
  TRACK 53 AUDIO
    TITLE "0:"
    INDEX 01 01:29:15
  TRACK 54 AUDIO
    TITLE "2:cjc039_1627"
    INDEX 01 01:30:62
  TRACK 55 AUDIO
    TITLE "0:"
    INDEX 01 01:32:04
  TRACK 56 AUDIO
    TITLE "3:cjc039_1628"
    INDEX 01 01:32:57
  TRACK 57 AUDIO
    TITLE "0:"
    INDEX 01 01:36:50
  TRACK 58 AUDIO
    TITLE "2:cjc039_1629"
    INDEX 01 01:38:28
  TRACK 59 AUDIO
    TITLE "0:"
    INDEX 01 01:39:45
  TRACK 60 AUDIO
    TITLE "3:cjc039_1630"
    INDEX 01 01:40:23
  TRACK 61 AUDIO
    TITLE "0:"
    INDEX 01 01:44:11
  TRACK 62 AUDIO
    TITLE "2:cjc039_1631"
    INDEX 01 01:45:63
  TRACK 63 AUDIO
    TITLE "0:"
    INDEX 01 01:47:09
  TRACK 64 AUDIO
    TITLE "3:cjc039_1632"
    INDEX 01 01:47:60
  TRACK 65 AUDIO
    TITLE "0:"
    INDEX 01 01:52:14
  TRACK 66 AUDIO
    TITLE "2:cjc039_1633"
    INDEX 01 01:53:67
  TRACK 67 AUDIO
    TITLE "0:"
    INDEX 01 01:54:72
  TRACK 68 AUDIO
    TITLE "3:cjc039_1634"
    INDEX 01 01:55:52
  TRACK 69 AUDIO
    TITLE "0:"
    INDEX 01 01:58:50
  TRACK 70 AUDIO
    TITLE "2:cjc039_1635"
    INDEX 01 02:00:31
  TRACK 71 AUDIO
    TITLE "0:"
    INDEX 01 02:01:37
  TRACK 72 AUDIO
    TITLE "3:cjc039_1636"
    INDEX 01 02:02:18
  TRACK 73 AUDIO
    TITLE "0:"
    INDEX 01 02:05:29
  TRACK 74 AUDIO
    TITLE "2:cjc039_1637"
    INDEX 01 02:07:02
  TRACK 75 AUDIO
    TITLE "0:"
    INDEX 01 02:08:17
  TRACK 76 AUDIO
    TITLE "3:cjc039_1638"
    INDEX 01 02:08:74
  TRACK 77 AUDIO
    TITLE "0:"
    INDEX 01 02:11:74
  TRACK 78 AUDIO
    TITLE "2:cjc039_1639"
    INDEX 01 02:13:52
  TRACK 79 AUDIO
    TITLE "0:"
    INDEX 01 02:15:00
  TRACK 80 AUDIO
    TITLE "3:cjc039_1640"
    INDEX 01 02:15:43
  TRACK 81 AUDIO
    TITLE "0:"
    INDEX 01 02:20:42
